<svg xmlns="http://www.w3.org/2000/svg" xmlns:xlink="http://www.w3.org/1999/xlink" width="32" height="32" viewBox="0 0 32 32">
    <defs>
        <path id="xzldxzhgwa" d="M0 0L32 0 32 32 0 32z"/>
    </defs>
    <g fill="none" fill-rule="evenodd">
        <g>
            <g>
                <g>
                    <g transform="translate(-76 -52) translate(0 47) translate(8 5) translate(68)">
                        <mask id="a4qx5nf6pb" fill="#fff">
                            <use xlink:href="#xzldxzhgwa"/>
                        </mask>
                        <g mask="url(#a4qx5nf6pb)">
                            <g>
                                <path fill="#FFF" d="M15 0c1.307 0 2.417.835 2.829 2H23c.552 0 1 .448 1 1v20c0 .552-.448 1-1 1H1c-.552 0-1-.448-1-1V3c0-.552.448-1 1-1h3.171C4.583.835 5.693 0 7 0c1.307 0 2.417.835 2.829 2h2.342C12.583.835 13.694 0 15 0zm7 9H2v13h20V9zM6.8 12c1.105 0 2 .895 2 2s-.895 2-2 2-2-.895-2-2 .895-2 2-2zM15 2c-.553 0-1 .447-1 1 0 .552-.448 1-1 1H9.83C9.417 5.165 8.307 6 7 6c-.552 0-1-.448-1-1s.448-1 1-1c.553 0 1-.447 1-1 0-.553-.447-1-1-1-.553 0-1 .447-1 1 0 .552-.448 1-1 1H2v3h20V4h-4.171C17.417 5.165 16.307 6 15 6c-.552 0-1-.448-1-1s.448-1 1-1c.553 0 1-.447 1-1 0-.553-.447-1-1-1z" transform="translate(4 4)"/>
                            </g>
                        </g>
                    </g>
                </g>
            </g>
        </g>
    </g>
</svg>
