<svg xmlns="http://www.w3.org/2000/svg" width="32" height="32" viewBox="0 0 32 32">
    <g fill="none" fill-rule="evenodd">
        <g>
            <g>
                <g>
                    <g>
                        <path d="M0 0L32 0 32 32 0 32z" transform="translate(-76 -61) translate(0 47) translate(8 14) translate(68)"/>
                        <path fill="#FFF" d="M5.333 8C4.597 8 4 7.403 4 6.667c0-.737.597-1.334 1.333-1.334h17.334c.736 0 1.333.597 1.333 1.334C24 7.403 23.403 8 22.667 8H5.333zm0 6.667C4.597 14.667 4 14.07 4 13.333 4 12.597 4.597 12 5.333 12h17.334c.736 0 1.333.597 1.333 1.333 0 .737-.597 1.334-1.333 1.334H5.333zm14.667 4V28l8-4.667-8-4.666zM5.333 21.333C4.597 21.333 4 20.736 4 20s.597-1.333 1.333-1.333h8c.737 0 1.334.597 1.334 1.333s-.597 1.333-1.334 1.333h-8z" transform="translate(-76 -61) translate(0 47) translate(8 14) translate(68)"/>
                    </g>
                </g>
            </g>
        </g>
    </g>
</svg>
