<svg height="32" viewBox="0 0 32 32" width="32" xmlns="http://www.w3.org/2000/svg"><g fill="none" fill-rule="evenodd"><path d="m0 0h32v32h-32z" fill="#f8f9fb"/><path d="m16 6c5.5228475 0 10 4.4907005 10 10.0302603 0 5.0770093-3.760688 9.273005-8.6404049 9.9383343l.0320305-8.8172272c0-1.2832832-1.1191406-2.3316558-2.4850878-2.3316558h-4.0666363v2.3316558h4.0552889l-.0000058 8.8486326c-5.00297574-.5515158-8.8951846-4.8047153-8.8951846-9.9697397 0-5.5395598 4.4771525-10.0302603 10-10.0302603zm-.2463054 4.4963236c-.9007079 0-1.6379311.7298271-1.6379311 1.6490987 0 .9068491.7372232 1.6366762 1.6379311 1.6366762.9130463 0 1.637931-.7298271 1.637931-1.6366762 0-.9192716-.7248847-1.6490987-1.637931-1.6490987z" fill="#dfe1e6"/></g></svg>