<svg xmlns="http://www.w3.org/2000/svg" width="32" height="32" viewBox="0 0 32 32">
    <g fill="none" fill-rule="evenodd">
        <g>
            <g>
                <g>
                    <g>
                        <path d="M0 0L32 0 32 32 0 32z" transform="translate(-76 -64) translate(0 47) translate(8 17) translate(68)"/>
                        <g fill="#FFF">
                            <path d="M13.333 0c7.364 0 13.334 5.97 13.334 13.333 0 7.364-5.97 13.334-13.334 13.334C5.97 26.667 0 20.697 0 13.333 0 5.97 5.97 0 13.333 0zm0 2.222c-6.136 0-11.11 4.975-11.11 11.111 0 6.137 4.974 11.111 11.11 11.111 6.137 0 11.111-4.974 11.111-11.11 0-6.137-4.974-11.112-11.11-11.112zm0 2.222c.614 0 1.111.498 1.111 1.112v7.777c0 .614-.497 1.111-1.11 1.111H8.888c-.614 0-1.111-.497-1.111-1.11 0-.614.497-1.112 1.11-1.112h3.334V5.556c0-.614.498-1.112 1.111-1.112z" transform="translate(-76 -64) translate(0 47) translate(8 17) translate(68) translate(2.667 2.667)"/>
                        </g>
                    </g>
                </g>
            </g>
        </g>
    </g>
</svg>
